{"title":"Radiofreccia AKA Radio Arrow - Luciano Ligabue (1998)","uid":8284905,"size":694543450,"categoryP":"video","categoryS":"movies","magnet":"?xt=urn:btih:c1e6b6e4bf54c99cb98efded0efbdbbdeb964a3d&amp;dn=Radiofreccia+AKA+Radio+Arrow+-+Luciano+Ligabue+%281998%29&amp;tr=udp%3A%2F%2Ftracker.openbittorrent.com%3A80&amp;tr=udp%3A%2F%2Fopen.demonii.com%3A1337&amp;tr=udp%3A%2F%2Ftracker.coppersurfer.tk%3A6969&amp;tr=udp%3A%2F%2Fexodus.desync.com%3A6969","seeders":3,"leechers":0,"uploader":"rpessoa","files":2,"time":1363923520,"description":"Five friends Freccia, Bruno, Tito, Jena and Boris are very keen on music but they live in a little town in northern Italy and spend most of their days at the local bar. They decide to set up an independent radio which soon becomes the voice of a generation. When Freccia dies from an overdose the radio takes his name. Written by Salvatore Santangelo &lt;&lt;a class=&quot;__cf_email__&quot; href=&quot;/cdn-cgi/l/email-protection&quot; data-cfemail=&quot;1666776666777179787324567a7f74736479387f62&quot;&gt;[email&amp;#160;protected]&lt;/a&gt;&lt;script cf-hash='f9e31' type=&quot;text/javascript&quot;&gt;\n/* &lt;![CDATA[ */!function(){try{var t=&quot;currentScript&quot;in document?document.currentScript:function(){for(var t=document.getElementsByTagName(&quot;script&quot;),e=t.length;e--;)if(t[e].getAttribute(&quot;cf-hash&quot;))return t[e]}();if(t&amp;&amp;t.previousSibling){var e,r,n,i,c=t.previousSibling,a=c.getAttribute(&quot;data-cfemail&quot;);if(a){for(e=&quot;&quot;,r=parseInt(a.substr(0,2),16),n=2;a.length-n;n+=2)i=parseInt(a.substr(n,2),16)^r,e+=String.fromCharCode(i);e=document.createTextNode(e),c.parentNode.replaceChild(e,c)}}}catch(u){}}();/* ]]&gt; */&lt;/script&gt;&gt;\n\nSUBS: English\n &lt;a href=&quot;\nhttp://www.imdb.com/title/tt0169164/&quot; rel=&quot;nofollow&quot; target=&quot;_NEW&quot;&gt;\nhttp://www.imdb.com/title/tt0169164/&lt;/a&gt;\n\nGeneral \nComplete name : Radiofreccia - Luciano Ligabue.avi \nFormat : AVI \nFormat/Info : Audio Video Interleave \nFile size : 662 MiB \nDuration : 1h 48mn \nOverall bit rate : 857 Kbps \n\nVideo \nID : 0 \nFormat : MPEG-4 Visual \nFormat profile : Advanced Simple@L5 \nFormat settings, BVOP : 2 \nFormat settings, QPel : No \nFormat settings, GMC : No warppoints \nFormat settings, Matrix : Default (H.263) \nCodec ID : XVID \nCodec ID/Hint : XviD \nDuration : 1h 48mn \nBit rate : 720 Kbps \nWidth : 720 pixels \nHeight : 384 pixels \nDisplay aspect ratio : 1.85:1 \nFrame rate : 25.000 fps \nColor space : YUV \nChroma subsampling : 4:2:0 \nBit depth : 8 bits \nScan type : Progressive \nCompression mode : Lossy \nBits/(Pixel*Frame) : 0.104 \nStream size : 556 MiB (84%) \nWriting library : XviD 1.2.0.dev47 (UTC 2006-11-01) \n\nAudio \nID : 1 \nFormat : MPEG Audio \nFormat version : Version 1 \nFormat profile : Layer 3 \nMode : Joint stereo \nCodec ID : 55 \nCodec ID/Hint : MP3 \nDuration : 1h 47mn \nSource duration : 1h 47mn \nBit rate mode : Constant \nBit rate : 128 Kbps \nChannel(s) : 2 channels \nSampling rate : 48.0 KHz \nCompression mode : Lossy \nStream size : 98.9 MiB (15%) \nAlignment : Aligned on interleaves \nInterleave, duration : 40 ms (1.00 video frame) \n\n","torrent":{"xt":"urn:btih:c1e6b6e4bf54c99cb98efded0efbdbbdeb964a3d","amp;dn":"Radiofreccia+AKA+Radio+Arrow+-+Luciano+Ligabue+%281998%29","amp;tr":["udp%3A%2F%2Ftracker.openbittorrent.com%3A80","udp%3A%2F%2Fopen.demonii.com%3A1337","udp%3A%2F%2Ftracker.coppersurfer.tk%3A6969","udp%3A%2F%2Fexodus.desync.com%3A6969"],"infoHash":"c1e6b6e4bf54c99cb98efded0efbdbbdeb964a3d","infoHashBuffer":{"type":"Buffer","data":[193,230,182,228,191,84,201,156,185,142,253,237,14,251,219,189,235,150,74,61]},"announce":[],"urlList":[]}}